<?xml version="1.0" encoding="UTF-8"?>
<svg width="329px" height="197px" viewBox="0 0 329 197" version="1.1" xmlns="http://www.w3.org/2000/svg" xmlns:xlink="http://www.w3.org/1999/xlink">
    <!-- Generator: Sketch 52.6 (67491) - http://www.bohemiancoding.com/sketch -->
    <title>Group 2</title>
    <desc>Created with Sketch.</desc>
    <g id="Page-2" stroke="none" stroke-width="1" fill="none" fill-rule="evenodd">
        <g id="Artboard" transform="translate(-416.000000, -360.000000)">
            <g id="Group" transform="translate(0.000000, -236.000000)">
                <g id="delete" transform="translate(580.500000, 695.000000) scale(-1, 1) translate(-580.500000, -695.000000) translate(417.000000, 598.000000)">
                    <g id="Group-2">
                        <path d="M286.560578,138.560552 L282.621655,142.499911 L286.560578,146.439084 C287.146474,147.025207 287.146474,147.974648 286.560578,148.560772 C286.267836,148.853516 285.884031,149 285.500413,149 C285.116161,149 284.732319,148.85374 284.439801,148.560772 L280.500019,144.621151 L276.560535,148.560734 C276.26783,148.853479 275.883988,148.999963 275.500034,148.999963 C275.116193,148.999963 274.732612,148.853702 274.439645,148.560734 C273.85375,147.974872 273.85375,147.025394 274.439645,146.439047 L278.378457,142.499874 L274.439422,138.560552 C273.853526,137.974653 273.853526,137.024988 274.439422,136.439089 C275.025205,135.853637 275.974304,135.853637 276.560311,136.439089 L280.499981,140.378448 L284.439353,136.439089 C285.025472,135.853637 285.974683,135.853637 286.560355,136.439089 C287.146474,137.024988 287.146474,137.974653 286.560578,138.560552 Z" id="Path" fill="#AFDCE7"></path>
                        <path d="M92,120 C91.4480468,120 91,120.447744 91,120.999805 C91,121.551866 91.4480468,122 92,122 C92.5519531,122 93,121.551866 93,120.999805 C93,120.447744 92.5519531,120 92,120 Z" id="Path" fill="#AFDCE7" transform="translate(92.000000, 121.000000) scale(-1, 1) translate(-92.000000, -121.000000) "></path>
                        <path d="M87.3250395,131.559035 C87.1569326,131.386916 86.9281107,131.290098 86.689813,131.290098 C86.6806883,131.291891 86.3353497,131.272169 86.0545867,131.559035 L85.4197112,132.207709 L83.3554008,130.098889 C87.9107814,123.574492 87.2179986,114.574445 81.6080017,108.842872 C75.2887272,102.386247 65.0598271,102.385171 58.7398507,108.842872 C52.4205762,115.299139 52.4195233,125.750725 58.7398507,132.208068 C64.3358094,137.926015 73.1408899,138.659673 79.5433404,133.993447 L81.6076508,136.102626 L80.9727753,136.751301 C80.6221724,137.109524 80.6218215,137.691144 80.9727753,138.049726 L92.3310448,149.653794 C94.0861649,151.448138 96.9271361,151.449213 98.6826071,149.654153 C100.43878,147.861243 100.439482,144.958164 98.6826071,143.164538 L87.3250395,131.559035 Z M82.8781036,134.80456 L80.9545257,132.839172 C81.1780833,132.634422 81.3967276,132.424293 81.6080017,132.208068 C81.8196269,131.992202 82.0252859,131.768805 82.2256804,131.540747 L84.1492584,133.506135 L82.8781036,134.80456 Z M60.0103036,130.910002 C54.3929367,125.170899 54.3922348,115.880759 60.0103036,110.140939 C65.6273195,104.401477 74.7198311,104.40076 80.337549,110.140939 C85.9422815,115.867133 85.9707087,125.155121 80.337549,130.910002 C74.6408665,136.73122 65.5508115,136.571292 60.0103036,130.910002 Z M86.689813,133.506135 L89.2303678,136.102267 L85.4193603,139.996108 L82.8784546,137.400334 L86.689813,133.506135 Z M97.4121542,148.356086 C96.3592927,149.432908 94.655412,149.433266 93.6018486,148.356086 L86.689813,141.294174 L90.5008206,137.400334 L97.4125052,144.462963 C98.4660686,145.53835 98.4671214,147.279265 97.4121542,148.356086 Z" id="Shape" fill="#AFDCE7" fill-rule="nonzero" transform="translate(77.000000, 127.500000) scale(-1, 1) translate(-77.000000, -127.500000) "></path>
                        <path d="M92.3433349,110.809056 C87.4580683,105.731887 79.5437201,105.728985 74.6563597,110.80833 C69.7812134,115.87607 69.7812134,124.121981 74.6563597,129.190083 C79.5444181,134.269791 87.4542296,134.270154 92.3426369,129.190083 C97.2188302,124.121981 97.2191792,115.876432 92.3433349,110.809056 Z M91.0793563,127.876816 C86.889941,132.230799 80.1101025,132.231887 75.9196403,127.877179 C71.7410432,123.532987 71.7410432,116.465063 75.9196403,112.120872 C80.1069618,107.769428 86.8913369,107.768339 91.0800543,112.12196 C95.2593494,116.465426 95.2590004,123.532987 91.0793563,127.876816 Z" id="Shape" fill="#AFDCE7" fill-rule="nonzero" transform="translate(83.500000, 120.000000) scale(-1, 1) translate(-83.500000, -120.000000) "></path>
                        <path d="M91.1441759,111 C88.8568522,111 86.7079314,112.02822 85.093232,113.895009 C84.1571744,114.976533 83.4681692,116.254276 83.045606,117.693476 C82.893831,118.21029 83.1331943,118.77191 83.5808305,118.947272 C84.0291352,119.123019 84.5145479,118.844913 84.6663229,118.328872 C85.003638,117.179752 85.5545748,116.158484 86.3034209,115.292879 C87.5951804,113.799989 89.3141832,112.977644 91.1441759,112.977644 C91.616885,112.977644 92,112.534992 92,111.988822 C92,111.442652 91.616885,111 91.1441759,111 Z" id="Path" fill="#AFDCE7" transform="translate(87.500000, 115.000000) scale(-1, 1) translate(-87.500000, -115.000000) "></path>
                        <rect id="Rectangle" stroke="#C3E4EB" fill="#AFDCE7" transform="translate(265.000000, 182.000000) scale(-1, 1) translate(-265.000000, -182.000000) " x="240" y="180" width="50" height="4" rx="2"></rect>
                        <rect id="Rectangle-Copy-6" stroke="#C3E4EB" stroke-width="17" fill="#AFDCE7" opacity="0.100000001" transform="translate(232.000000, 98.000000) scale(-1, 1) translate(-232.000000, -98.000000) " x="207" y="96" width="50" height="4" rx="2"></rect>
                        <rect id="Rectangle-Copy-7" stroke="#C3E4EB" stroke-width="17" fill="#AFDCE7" opacity="0.100000001" transform="translate(212.000000, 125.000000) scale(-1, 1) translate(-212.000000, -125.000000) " x="187" y="123" width="50" height="4" rx="2"></rect>
                        <rect id="Rectangle-Copy-8" stroke="#C3E4EB" stroke-width="17" fill="#AFDCE7" opacity="0.100000001" transform="translate(92.000000, 79.000000) scale(-1, 1) translate(-92.000000, -79.000000) " x="67" y="77" width="50" height="4" rx="2"></rect>
                        <rect id="Rectangle-Copy" stroke="#C3E4EB" fill="#AFDCE7" transform="translate(302.000000, 192.000000) scale(-1, 1) translate(-302.000000, -192.000000) " x="277" y="190" width="50" height="4" rx="2"></rect>
                        <rect id="Rectangle-Copy-2" stroke="#C3E4EB" fill="#AFDCE7" transform="translate(246.000000, 192.000000) scale(-1, 1) translate(-246.000000, -192.000000) " x="221" y="190" width="50" height="4" rx="2"></rect>
                        <path d="M89,190 L98,190 C99.1045695,190 100,190.895431 100,192 L100,192 C100,193.104569 99.1045695,194 98,194 L89,194 C87.8954305,194 87,193.104569 87,192 L87,192 C87,190.895431 87.8954305,190 89,190 Z" id="Rectangle-Copy-3" stroke="#C3E4EB" fill="#AFDCE7" transform="translate(93.500000, 192.000000) scale(-1, 1) translate(-93.500000, -192.000000) "></path>
                        <path d="M2,190 L79,190 C80.1045695,190 81,190.895431 81,192 L81,192 C81,193.104569 80.1045695,194 79,194 L2,194 C0.8954305,194 1.3527075e-16,193.104569 0,192 L0,192 C-1.3527075e-16,190.895431 0.8954305,190 2,190 Z" id="Rectangle-Copy-4" stroke="#C3E4EB" fill="#AFDCE7" transform="translate(40.500000, 192.000000) scale(-1, 1) translate(-40.500000, -192.000000) "></path>
                        <path d="M31,180 L89,180 C90.1045695,180 91,180.895431 91,182 L91,182 C91,183.104569 90.1045695,184 89,184 L31,184 C29.8954305,184 29,183.104569 29,182 L29,182 C29,180.895431 29.8954305,180 31,180 Z" id="Rectangle-Copy-5" stroke="#C3E4EB" fill="#AFDCE7" transform="translate(60.000000, 182.000000) scale(-1, 1) translate(-60.000000, -182.000000) "></path>
                        <path d="M107.091797,138.828125 L107.091797,41.3125 C107.376953,37.1041667 110.069661,35 115.169922,35 C120.270182,35 150.499349,35 205.857422,35 L227,56.046875 L227,138.828125 L214.621094,135.369141 L205.857422,141.349609 L197.099609,135.369141 L185.933594,141.349609 L177.855469,135.369141 L167.045898,141.349609 L157.103516,135.369141 L150.054688,141.349609 L139,135.369141 L128.800781,141.349609 L120.064453,135.369141 L107.091797,138.828125 Z" id="Path-2" stroke="#5C7577" stroke-width="3" fill="#FFFFFF" transform="translate(167.045898, 88.174805) scale(-1, 1) translate(-167.045898, -88.174805) "></path>
                        <circle id="Oval" stroke="#E4F3F6" fill="#AFDCE7" transform="translate(138.500000, 77.500000) scale(-1, 1) translate(-138.500000, -77.500000) " cx="138.5" cy="77.5" r="5.5"></circle>
                        <circle id="Oval-Copy" stroke="#E4F3F6" fill="#AFDCE7" transform="translate(194.500000, 77.500000) scale(-1, 1) translate(-194.500000, -77.500000) " cx="194.5" cy="77.5" r="5.5"></circle>
                        <path d="M107.804687,151.851563 L119.908203,145.941406 L129.597656,151.851563 L139.371094,145.941406 L148.595703,151.851563 L158.185547,145.941406 L166.697266,151.851563 L177.994141,145.941406 L186.939453,151.851563 L196.945312,145.941406 L204.636719,151.851563 L217.039062,145.941406 L226.732422,151.851563 L226.732422,184.648438 C226.634815,187.247802 226.495492,188.911701 226.314453,189.640137 C225.604559,192.496489 223.019549,192.837891 217.039062,192.837891 C208.770833,192.837891 174.153646,192.837891 113.1875,192.837891 C109.598958,192.141276 107.804687,189.411458 107.804687,184.648438 C107.804687,179.885417 107.804687,168.953125 107.804687,151.851563 Z" id="Path-3" stroke="#5C7577" stroke-width="3" fill="#FFFFFF" transform="translate(167.268555, 169.389648) scale(-1, 1) translate(-167.268555, -169.389648) "></path>
                        <path d="M150.490234,112.643555 C162.673828,101.118815 173.510417,101.118815 183,112.643555" id="Path-4" stroke="#AFDCE7" stroke-width="3" transform="translate(166.745117, 108.321777) scale(-1, 1) translate(-166.745117, -108.321777) "></path>
                        <path d="M263.695312,37.6308594 L240.089844,29" id="Path-5" stroke="#AFDCE7" stroke-width="4" stroke-linecap="round" transform="translate(252.044922, 33.296875) scale(-1, 1) translate(-252.044922, -33.296875) "></path>
                        <path d="M250,30 L234,13" id="Path-5-Copy" stroke="#AFDCE7" stroke-width="4" stroke-linecap="round" transform="translate(242.000000, 22.000000) scale(-1, 1) translate(-242.000000, -22.000000) "></path>
                        <path d="M234,23 L226,0" id="Path-5-Copy-2" stroke="#AFDCE7" stroke-width="4" stroke-linecap="round" transform="translate(230.000000, 11.500000) scale(-1, 1) translate(-230.000000, -11.500000) "></path>
                        <polygon id="Path-7" stroke="#5C7577" stroke-width="2" transform="translate(118.369385, 45.828735) scale(-1, 1) translate(-118.369385, -45.828735) " points="108.73877 36.2531738 108.73877 54.8549805 128 55.4042969"></polygon>
                    </g>
                </g>
            </g>
        </g>
    </g>
</svg>